<?xml version="1.0" encoding="UTF-8" standalone="no"?>
<!DOCTYPE svg PUBLIC "-//W3C//DTD SVG 1.1//EN" "http://www.w3.org/Graphics/SVG/1.1/DTD/svg11.dtd">
<!-- Generated by graphviz version 2.40.1 (20161225.0304)
 -->
<!-- Title: G Pages: 1 -->
<svg width="1814pt" height="1152pt" viewBox="0.00 0.00 1814.00 1152.00" xmlns="http://www.w3.org/2000/svg" xmlns:xlink="http://www.w3.org/1999/xlink">
<g id="graph0" class="graph" transform="scale(1 1) rotate(0) translate(4 1147.9971)">
<title>G</title>
<polygon fill="#ffffff" stroke="transparent" points="-4,4 -4,-1147.9971 1810,-1147.9971 1810,4 -4,4"/>
<!-- bd -->
<g id="node1" class="node">
<title>bd</title>
<polygon fill="none" stroke="#000000" points="344,-1143.9971 290,-1143.9971 290,-1107.9971 344,-1107.9971 344,-1143.9971"/>
<text text-anchor="middle" x="317" y="-1121.7971" font-family="Times,serif" font-size="14.00" fill="#000000">bd</text>
</g>
<!-- lg -->
<g id="node2" class="node">
<title>lg</title>
<polygon fill="none" stroke="#000000" points="344,-1071.9971 290,-1071.9971 290,-1035.9971 344,-1035.9971 344,-1071.9971"/>
<text text-anchor="middle" x="317" y="-1049.7971" font-family="Times,serif" font-size="14.00" fill="#000000">lg</text>
</g>
<!-- bd&#45;&gt;lg -->
<g id="edge1" class="edge">
<title>bd-&gt;lg</title>
<path fill="none" stroke="#000000" d="M317,-1107.8284C317,-1100.128 317,-1090.9714 317,-1082.4137"/>
<polygon fill="#000000" stroke="#000000" points="320.5001,-1082.4103 317,-1072.4103 313.5001,-1082.4104 320.5001,-1082.4103"/>
</g>
<!-- cm -->
<g id="node3" class="node">
<title>cm</title>
<ellipse fill="none" stroke="#000000" cx="262" cy="-977.1617" rx="22.6719" ry="22.6719"/>
<polyline fill="none" stroke="#000000" points="277.1033,-994.2882 246.8967,-994.2882 "/>
<polyline fill="none" stroke="#000000" points="277.1033,-960.0352 246.8967,-960.0352 "/>
<text text-anchor="middle" x="262" y="-972.9617" font-family="Times,serif" font-size="14.00" fill="#000000">cm</text>
</g>
<!-- bd&#45;&gt;cm -->
<g id="edge2" class="edge">
<title>bd-&gt;cm</title>
<path fill="none" stroke="#000000" d="M302.0609,-1107.538C294.6853,-1097.5553 286.2625,-1084.696 281,-1071.9971 272.8476,-1052.3248 268.1097,-1028.8705 265.4039,-1010.2087"/>
<polygon fill="#000000" stroke="#000000" points="268.8499,-1009.5691 264.068,-1000.1148 261.9104,-1010.4876 268.8499,-1009.5691"/>
</g>
<!-- lg&#45;&gt;cm -->
<g id="edge25" class="edge">
<title>lg-&gt;cm</title>
<path fill="none" stroke="#000000" d="M303.9658,-1035.7881C297.2155,-1026.3579 288.8395,-1014.6567 281.3502,-1004.194"/>
<polygon fill="#000000" stroke="#000000" points="283.9894,-1001.8679 275.3227,-995.7736 278.2974,-1005.9423 283.9894,-1001.8679"/>
</g>
<!-- ft -->
<g id="node7" class="node">
<title>ft</title>
<polygon fill="none" stroke="#000000" points="382,-918.3263 328,-918.3263 328,-882.3263 382,-882.3263 382,-918.3263"/>
<text text-anchor="middle" x="355" y="-896.1263" font-family="Times,serif" font-size="14.00" fill="#000000">ft</text>
</g>
<!-- cm&#45;&gt;ft -->
<g id="edge20" class="edge">
<title>cm-&gt;ft</title>
<path fill="none" stroke="#000000" d="M277.3423,-959.7266C288.9868,-949.1915 305.2359,-935.6197 319.9197,-924.1089"/>
<polygon fill="#000000" stroke="#000000" points="322.1054,-926.8432 327.8771,-917.9584 317.8245,-921.3047 322.1054,-926.8432"/>
</g>
<!-- jp -->
<g id="node22" class="node">
<title>jp</title>
<polygon fill="none" stroke="#000000" points="139,-613.6343 85,-613.6343 85,-577.6343 139,-577.6343 139,-613.6343"/>
<text text-anchor="middle" x="112" y="-591.4343" font-family="Times,serif" font-size="14.00" fill="#000000">jp</text>
</g>
<!-- cm&#45;&gt;jp -->
<g id="edge18" class="edge">
<title>cm-&gt;jp</title>
<path fill="none" stroke="#000000" d="M239.289,-973.2298C182.3417,-961.936 38,-923.8356 38,-827.7777 38,-827.7777 38,-827.7777 38,-753.6191 38,-703.4481 68.9832,-652.0578 90.8534,-622.0324"/>
<polygon fill="#000000" stroke="#000000" points="93.8347,-623.8901 97.025,-613.787 88.2306,-619.6955 93.8347,-623.8901"/>
</g>
<!-- sk -->
<g id="node23" class="node">
<title>sk</title>
<polygon fill="none" stroke="#000000" points="158,-771.6191 104,-771.6191 104,-735.6191 158,-735.6191 158,-771.6191"/>
<text text-anchor="middle" x="131" y="-749.4191" font-family="Times,serif" font-size="14.00" fill="#000000">sk</text>
</g>
<!-- cm&#45;&gt;sk -->
<g id="edge19" class="edge">
<title>cm-&gt;sk</title>
<path fill="none" stroke="#000000" d="M242.1814,-965.4242C211.0535,-945.593 152.2641,-902.1059 133,-846.3263 125.8499,-825.6231 125.735,-800.7404 127.1969,-781.9684"/>
<polygon fill="#000000" stroke="#000000" points="130.6851,-782.2584 128.1674,-771.9671 123.7178,-781.5823 130.6851,-782.2584"/>
</g>
<!-- dt -->
<g id="node24" class="node">
<title>dt</title>
<ellipse fill="none" stroke="#000000" cx="875" cy="-827.7777" rx="18.5974" ry="18.5974"/>
<polyline fill="none" stroke="#000000" points="887.2681,-841.6892 862.7319,-841.6892 "/>
<polyline fill="none" stroke="#000000" points="887.2681,-813.8662 862.7319,-813.8662 "/>
<text text-anchor="middle" x="875" y="-823.5777" font-family="Times,serif" font-size="14.00" fill="#000000">dt</text>
</g>
<!-- cm&#45;&gt;dt -->
<g id="edge21" class="edge">
<title>cm-&gt;dt</title>
<path fill="none" stroke="#000000" d="M285.0815,-975.8289C369.2119,-970.7436 658.9825,-951.1761 745,-918.3263 787.7074,-902.0165 829.7585,-868.7154 854.0026,-847.3619"/>
<polygon fill="#000000" stroke="#000000" points="856.411,-849.9033 861.5171,-840.6201 851.7364,-844.693 856.411,-849.9033"/>
</g>
<!-- gb -->
<g id="node25" class="node">
<title>gb</title>
<polygon fill="none" stroke="#000000" points="253,-396 199,-396 199,-360 253,-360 253,-396"/>
<text text-anchor="middle" x="226" y="-373.8" font-family="Times,serif" font-size="14.00" fill="#000000">gb</text>
</g>
<!-- cm&#45;&gt;gb -->
<g id="edge22" class="edge">
<title>cm-&gt;gb</title>
<path fill="none" stroke="#000000" d="M238.9341,-976.1C197.7465,-973.1127 110.5747,-961.7249 54,-918.3263 16.8219,-889.8069 0,-874.6346 0,-827.7777 0,-827.7777 0,-827.7777 0,-522.0069 0,-433.6444 124.3944,-397.1305 188.6064,-384.1683"/>
<polygon fill="#000000" stroke="#000000" points="189.5811,-387.5451 198.7391,-382.2176 188.2577,-380.6713 189.5811,-387.5451"/>
</g>
<!-- broadcaster -->
<g id="node4" class="node">
<title>broadcaster</title>
<polygon fill="none" stroke="#000000" points="951,-995.1617 872.4158,-977.1617 951,-959.1617 1029.5842,-977.1617 951,-995.1617"/>
<polyline fill="none" stroke="#000000" points="884.1129,-979.8409 884.1129,-974.4824 "/>
<polyline fill="none" stroke="#000000" points="939.3029,-961.8409 962.6971,-961.8409 "/>
<polyline fill="none" stroke="#000000" points="1017.8871,-974.4824 1017.8871,-979.8409 "/>
<polyline fill="none" stroke="#000000" points="962.6971,-992.4824 939.3029,-992.4824 "/>
<text text-anchor="middle" x="951" y="-972.9617" font-family="Times,serif" font-size="14.00" fill="#000000">broadcaster</text>
</g>
<!-- ct -->
<g id="node5" class="node">
<title>ct</title>
<polygon fill="none" stroke="#000000" points="736,-918.3263 682,-918.3263 682,-882.3263 736,-882.3263 736,-918.3263"/>
<text text-anchor="middle" x="709" y="-896.1263" font-family="Times,serif" font-size="14.00" fill="#000000">ct</text>
</g>
<!-- broadcaster&#45;&gt;ct -->
<g id="edge3" class="edge">
<title>broadcaster-&gt;ct</title>
<path fill="none" stroke="#000000" d="M917.8584,-966.6392C872.8747,-952.3568 792.7418,-926.9145 745.8942,-912.0403"/>
<polygon fill="#000000" stroke="#000000" points="746.7368,-908.6357 736.1465,-908.9454 744.6184,-915.3075 746.7368,-908.6357"/>
</g>
<!-- hr -->
<g id="node6" class="node">
<title>hr</title>
<polygon fill="none" stroke="#000000" points="1183,-918.3263 1129,-918.3263 1129,-882.3263 1183,-882.3263 1183,-918.3263"/>
<text text-anchor="middle" x="1156" y="-896.1263" font-family="Times,serif" font-size="14.00" fill="#000000">hr</text>
</g>
<!-- broadcaster&#45;&gt;hr -->
<g id="edge4" class="edge">
<title>broadcaster-&gt;hr</title>
<path fill="none" stroke="#000000" d="M980.8088,-965.9892C1017.4579,-952.2528 1079.6513,-928.9423 1119.2301,-914.1079"/>
<polygon fill="#000000" stroke="#000000" points="1120.6404,-917.3172 1128.7759,-910.5301 1118.1836,-910.7624 1120.6404,-917.3172"/>
</g>
<!-- broadcaster&#45;&gt;ft -->
<g id="edge5" class="edge">
<title>broadcaster-&gt;ft</title>
<path fill="none" stroke="#000000" d="M900.699,-970.677C783.6237,-955.5838 495.0513,-918.3815 392.1748,-905.1188"/>
<polygon fill="#000000" stroke="#000000" points="392.6124,-901.6464 382.2469,-903.839 391.7173,-908.5889 392.6124,-901.6464"/>
</g>
<!-- qm -->
<g id="node8" class="node">
<title>qm</title>
<polygon fill="none" stroke="#000000" points="1575,-918.3263 1521,-918.3263 1521,-882.3263 1575,-882.3263 1575,-918.3263"/>
<text text-anchor="middle" x="1548" y="-896.1263" font-family="Times,serif" font-size="14.00" fill="#000000">qm</text>
</g>
<!-- broadcaster&#45;&gt;qm -->
<g id="edge6" class="edge">
<title>broadcaster-&gt;qm</title>
<path fill="none" stroke="#000000" d="M1001.3854,-970.677C1118.6572,-955.5838 1407.7137,-918.3815 1510.7629,-905.1188"/>
<polygon fill="#000000" stroke="#000000" points="1511.236,-908.5869 1520.7074,-903.839 1510.3424,-901.6442 1511.236,-908.5869"/>
</g>
<!-- mj -->
<g id="node36" class="node">
<title>mj</title>
<polygon fill="none" stroke="#000000" points="672,-845.7777 618,-845.7777 618,-809.7777 672,-809.7777 672,-845.7777"/>
<text text-anchor="middle" x="645" y="-823.5777" font-family="Times,serif" font-size="14.00" fill="#000000">mj</text>
</g>
<!-- ct&#45;&gt;mj -->
<g id="edge98" class="edge">
<title>ct-&gt;mj</title>
<path fill="none" stroke="#000000" d="M692.8501,-882.0192C685.2126,-873.3616 675.9636,-862.8771 667.6407,-853.4426"/>
<polygon fill="#000000" stroke="#000000" points="670.1632,-851.0113 660.923,-845.8276 664.9138,-855.6421 670.1632,-851.0113"/>
</g>
<!-- mh -->
<g id="node38" class="node">
<title>mh</title>
<ellipse fill="none" stroke="#000000" cx="691" cy="-674.632" rx="23.2549" ry="23.2549"/>
<polyline fill="none" stroke="#000000" points="706.4616,-692.1649 675.5384,-692.1649 "/>
<polyline fill="none" stroke="#000000" points="706.4616,-657.0992 675.5384,-657.0992 "/>
<text text-anchor="middle" x="691" y="-670.432" font-family="Times,serif" font-size="14.00" fill="#000000">mh</text>
</g>
<!-- ct&#45;&gt;mh -->
<g id="edge97" class="edge">
<title>ct-&gt;mh</title>
<path fill="none" stroke="#000000" d="M703.6799,-882.2383C697.2533,-844.5063 689.8976,-756.8932 688.7121,-708.4131"/>
<polygon fill="#000000" stroke="#000000" points="692.2073,-708.0677 688.5521,-698.1234 685.2081,-708.1767 692.2073,-708.0677"/>
</g>
<!-- zz -->
<g id="node11" class="node">
<title>zz</title>
<ellipse fill="none" stroke="#000000" cx="1156" cy="-753.6191" rx="19.7205" ry="19.7205"/>
<polyline fill="none" stroke="#000000" points="1168.97,-768.3266 1143.03,-768.3266 "/>
<polyline fill="none" stroke="#000000" points="1168.97,-738.9116 1143.03,-738.9116 "/>
<text text-anchor="middle" x="1156" y="-749.4191" font-family="Times,serif" font-size="14.00" fill="#000000">zz</text>
</g>
<!-- hr&#45;&gt;zz -->
<g id="edge84" class="edge">
<title>hr-&gt;zz</title>
<path fill="none" stroke="#000000" d="M1151.3562,-882.0424C1148.8891,-857.2779 1148.5894,-812.7792 1150.4569,-783.2191"/>
<polygon fill="#000000" stroke="#000000" points="1153.9603,-783.3091 1151.243,-773.0687 1146.9812,-782.7686 1153.9603,-783.3091"/>
</g>
<!-- zq -->
<g id="node56" class="node">
<title>zq</title>
<polygon fill="none" stroke="#000000" points="1247,-845.7777 1193,-845.7777 1193,-809.7777 1247,-809.7777 1247,-845.7777"/>
<text text-anchor="middle" x="1220" y="-823.5777" font-family="Times,serif" font-size="14.00" fill="#000000">zq</text>
</g>
<!-- hr&#45;&gt;zq -->
<g id="edge85" class="edge">
<title>hr-&gt;zq</title>
<path fill="none" stroke="#000000" d="M1172.1499,-882.0192C1179.7874,-873.3616 1189.0364,-862.8771 1197.3593,-853.4426"/>
<polygon fill="#000000" stroke="#000000" points="1200.0862,-855.6421 1204.077,-845.8276 1194.8368,-851.0113 1200.0862,-855.6421"/>
</g>
<!-- ft&#45;&gt;cm -->
<g id="edge101" class="edge">
<title>ft-&gt;cm</title>
<path fill="none" stroke="#000000" d="M338.8002,-918.5352C325.166,-930.8078 305.6492,-946.9266 289.6129,-959.1563"/>
<polygon fill="#000000" stroke="#000000" points="287.5039,-956.363 281.5938,-965.1562 291.6975,-961.9678 287.5039,-956.363"/>
</g>
<!-- qn -->
<g id="node55" class="node">
<title>qn</title>
<polygon fill="none" stroke="#000000" points="196,-845.7777 142,-845.7777 142,-809.7777 196,-809.7777 196,-845.7777"/>
<text text-anchor="middle" x="169" y="-823.5777" font-family="Times,serif" font-size="14.00" fill="#000000">qn</text>
</g>
<!-- ft&#45;&gt;qn -->
<g id="edge100" class="edge">
<title>ft-&gt;qn</title>
<path fill="none" stroke="#000000" d="M327.954,-889.7771C295.7202,-877.2045 241.7077,-856.1371 205.7185,-842.0996"/>
<polygon fill="#000000" stroke="#000000" points="206.6669,-838.7128 196.0786,-838.3396 204.1232,-845.2342 206.6669,-838.7128"/>
</g>
<!-- kd -->
<g id="node21" class="node">
<title>kd</title>
<ellipse fill="none" stroke="#000000" cx="1580" cy="-674.632" rx="20.8887" ry="20.8887"/>
<polyline fill="none" stroke="#000000" points="1593.6866,-690.1521 1566.3134,-690.1521 "/>
<polyline fill="none" stroke="#000000" points="1593.6866,-659.1119 1566.3134,-659.1119 "/>
<text text-anchor="middle" x="1580" y="-670.432" font-family="Times,serif" font-size="14.00" fill="#000000">kd</text>
</g>
<!-- qm&#45;&gt;kd -->
<g id="edge52" class="edge">
<title>qm-&gt;kd</title>
<path fill="none" stroke="#000000" d="M1546.6871,-882.2383C1548.6744,-843.4366 1561.3652,-751.8854 1571.0346,-704.3862"/>
<polygon fill="#000000" stroke="#000000" points="1574.5,-704.9179 1573.1708,-694.4068 1567.6551,-703.4527 1574.5,-704.9179"/>
</g>
<!-- kb -->
<g id="node45" class="node">
<title>kb</title>
<polygon fill="none" stroke="#000000" points="1543,-845.7777 1489,-845.7777 1489,-809.7777 1543,-809.7777 1543,-845.7777"/>
<text text-anchor="middle" x="1516" y="-823.5777" font-family="Times,serif" font-size="14.00" fill="#000000">kb</text>
</g>
<!-- qm&#45;&gt;kb -->
<g id="edge51" class="edge">
<title>qm-&gt;kb</title>
<path fill="none" stroke="#000000" d="M1539.925,-882.0192C1536.3354,-873.8811 1532.0338,-864.1287 1528.0741,-855.1515"/>
<polygon fill="#000000" stroke="#000000" points="1531.1996,-853.5646 1523.9615,-845.8276 1524.7949,-856.3896 1531.1996,-853.5646"/>
</g>
<!-- bh -->
<g id="node9" class="node">
<title>bh</title>
<polygon fill="none" stroke="#000000" points="1276,-613.6343 1222,-613.6343 1222,-577.6343 1276,-577.6343 1276,-613.6343"/>
<text text-anchor="middle" x="1249" y="-591.4343" font-family="Times,serif" font-size="14.00" fill="#000000">bh</text>
</g>
<!-- lj -->
<g id="node10" class="node">
<title>lj</title>
<polygon fill="none" stroke="#000000" points="1238,-540.0069 1184,-540.0069 1184,-504.0069 1238,-504.0069 1238,-540.0069"/>
<text text-anchor="middle" x="1211" y="-517.8069" font-family="Times,serif" font-size="14.00" fill="#000000">lj</text>
</g>
<!-- bh&#45;&gt;lj -->
<g id="edge7" class="edge">
<title>bh-&gt;lj</title>
<path fill="none" stroke="#000000" d="M1239.6067,-577.4343C1235.2221,-568.9387 1229.9111,-558.6484 1225.0614,-549.2518"/>
<polygon fill="#000000" stroke="#000000" points="1228.1135,-547.5338 1220.4169,-540.2527 1221.8931,-550.7442 1228.1135,-547.5338"/>
</g>
<!-- lj&#45;&gt;zz -->
<g id="edge32" class="edge">
<title>lj-&gt;zz</title>
<path fill="none" stroke="#000000" d="M1206.9147,-540.0211C1199.6574,-571.9123 1183.9654,-640.3801 1170,-698.0091 1167.8996,-706.6765 1165.555,-716.087 1163.3942,-724.6595"/>
<polygon fill="#000000" stroke="#000000" points="1159.9405,-724.0408 1160.8785,-734.594 1166.7263,-725.7592 1159.9405,-724.0408"/>
</g>
<!-- cx -->
<g id="node32" class="node">
<title>cx</title>
<polygon fill="none" stroke="#000000" points="1200,-468 1146,-468 1146,-432 1200,-432 1200,-468"/>
<text text-anchor="middle" x="1173" y="-445.8" font-family="Times,serif" font-size="14.00" fill="#000000">cx</text>
</g>
<!-- lj&#45;&gt;cx -->
<g id="edge31" class="edge">
<title>lj-&gt;cx</title>
<path fill="none" stroke="#000000" d="M1201.411,-503.8365C1197.1683,-495.7969 1192.0879,-486.17 1187.404,-477.2944"/>
<polygon fill="#000000" stroke="#000000" points="1190.4808,-475.6255 1182.7181,-468.415 1184.29,-478.8926 1190.4808,-475.6255"/>
</g>
<!-- zz&#45;&gt;hr -->
<g id="edge9" class="edge">
<title>zz-&gt;hr</title>
<path fill="none" stroke="#000000" d="M1160.757,-773.0687C1163.1463,-798.3254 1163.3873,-842.6109 1161.48,-871.7063"/>
<polygon fill="#000000" stroke="#000000" points="1157.9617,-871.7927 1160.6438,-882.0424 1164.9389,-872.3572 1157.9617,-871.7927"/>
</g>
<!-- zz&#45;&gt;bh -->
<g id="edge11" class="edge">
<title>zz-&gt;bh</title>
<path fill="none" stroke="#000000" d="M1170.8161,-740.6604C1182.1877,-730.0911 1197.6448,-714.2936 1208,-698.0091 1222.8324,-674.684 1233.9752,-645.107 1240.8725,-623.7485"/>
<polygon fill="#000000" stroke="#000000" points="1244.2807,-624.5756 1243.9149,-613.9871 1237.5978,-622.4926 1244.2807,-624.5756"/>
</g>
<!-- th -->
<g id="node12" class="node">
<title>th</title>
<polygon fill="none" stroke="#000000" points="1364,-692.632 1310,-692.632 1310,-656.632 1364,-656.632 1364,-692.632"/>
<text text-anchor="middle" x="1337" y="-670.432" font-family="Times,serif" font-size="14.00" fill="#000000">th</text>
</g>
<!-- zz&#45;&gt;th -->
<g id="edge8" class="edge">
<title>zz-&gt;th</title>
<path fill="none" stroke="#000000" d="M1174.927,-747.0579C1202.1727,-737.3995 1253.8093,-718.2934 1296,-698.0091 1297.5739,-697.2525 1299.1698,-696.4598 1300.7733,-695.6423"/>
<polygon fill="#000000" stroke="#000000" points="1302.7527,-698.5538 1309.9377,-690.7674 1299.4653,-692.3737 1302.7527,-698.5538"/>
</g>
<!-- jk -->
<g id="node13" class="node">
<title>jk</title>
<polygon fill="none" stroke="#000000" points="1162,-396 1108,-396 1108,-360 1162,-360 1162,-396"/>
<text text-anchor="middle" x="1135" y="-373.8" font-family="Times,serif" font-size="14.00" fill="#000000">jk</text>
</g>
<!-- zz&#45;&gt;jk -->
<g id="edge10" class="edge">
<title>zz-&gt;jk</title>
<path fill="none" stroke="#000000" d="M1148.4924,-734.9998C1137.4181,-705.807 1118,-647.259 1118,-595.6343 1118,-595.6343 1118,-595.6343 1118,-522.0069 1118,-481.6023 1124.6819,-435.258 1129.6674,-406.3027"/>
<polygon fill="#000000" stroke="#000000" points="1133.1758,-406.5632 1131.4776,-396.1053 1126.2835,-405.3396 1133.1758,-406.5632"/>
</g>
<!-- js -->
<g id="node14" class="node">
<title>js</title>
<ellipse fill="none" stroke="#000000" cx="958" cy="-674.632" rx="18" ry="18"/>
<polyline fill="none" stroke="#000000" points="969.9052,-688.132 946.0948,-688.132 "/>
<polyline fill="none" stroke="#000000" points="969.9052,-661.132 946.0948,-661.132 "/>
<text text-anchor="middle" x="958" y="-670.432" font-family="Times,serif" font-size="14.00" fill="#000000">js</text>
</g>
<!-- zz&#45;&gt;js -->
<g id="edge12" class="edge">
<title>zz-&gt;js</title>
<path fill="none" stroke="#000000" d="M1136.8175,-749.2421C1105.094,-741.5617 1040.2195,-723.9684 990,-698.0091 986.7856,-696.3476 983.5412,-694.382 980.415,-692.3075"/>
<polygon fill="#000000" stroke="#000000" points="982.2139,-689.2915 972.04,-686.3345 978.1493,-694.9906 982.2139,-689.2915"/>
</g>
<!-- th&#45;&gt;bh -->
<g id="edge33" class="edge">
<title>th-&gt;bh</title>
<path fill="none" stroke="#000000" d="M1316.5898,-656.3098C1304.8167,-645.7411 1289.8445,-632.3005 1276.9855,-620.7569"/>
<polygon fill="#000000" stroke="#000000" points="1279.079,-617.9329 1269.2995,-613.8572 1274.4029,-623.1419 1279.079,-617.9329"/>
</g>
<!-- fs -->
<g id="node29" class="node">
<title>fs</title>
<polygon fill="none" stroke="#000000" points="1124,-324 1070,-324 1070,-288 1124,-288 1124,-324"/>
<text text-anchor="middle" x="1097" y="-301.8" font-family="Times,serif" font-size="14.00" fill="#000000">fs</text>
</g>
<!-- jk&#45;&gt;fs -->
<g id="edge28" class="edge">
<title>jk-&gt;fs</title>
<path fill="none" stroke="#000000" d="M1125.411,-359.8314C1121.1683,-351.7925 1116.0879,-342.1666 1111.404,-333.2918"/>
<polygon fill="#000000" stroke="#000000" points="1114.4811,-331.6235 1106.7181,-324.4133 1108.2904,-334.8908 1114.4811,-331.6235"/>
</g>
<!-- cl -->
<g id="node15" class="node">
<title>cl</title>
<ellipse fill="none" stroke="#000000" cx="939" cy="-522.0069" rx="18.0138" ry="18.0138"/>
<polyline fill="none" stroke="#000000" points="950.9098,-535.5121 927.0902,-535.5121 "/>
<polyline fill="none" stroke="#000000" points="950.9098,-508.5017 927.0902,-508.5017 "/>
<text text-anchor="middle" x="939" y="-517.8069" font-family="Times,serif" font-size="14.00" fill="#000000">cl</text>
</g>
<!-- js&#45;&gt;cl -->
<g id="edge13" class="edge">
<title>js-&gt;cl</title>
<path fill="none" stroke="#000000" d="M955.7458,-656.5246C952.4748,-630.2486 946.382,-581.3059 942.5171,-550.2594"/>
<polygon fill="#000000" stroke="#000000" points="945.9598,-549.5818 941.2512,-540.0908 939.0135,-550.4466 945.9598,-549.5818"/>
</g>
<!-- rx -->
<g id="node16" class="node">
<title>rx</title>
<polygon fill="none" stroke="#000000" points="957,-468 921,-468 921,-432 957,-432 957,-468"/>
<polyline fill="none" stroke="#000000" points="933,-468 921,-456 "/>
<polyline fill="none" stroke="#000000" points="921,-444 933,-432 "/>
<polyline fill="none" stroke="#000000" points="945,-432 957,-444 "/>
<polyline fill="none" stroke="#000000" points="957,-456 945,-468 "/>
<text text-anchor="middle" x="939" y="-445.8" font-family="Times,serif" font-size="14.00" fill="#000000">rx</text>
</g>
<!-- cl&#45;&gt;rx -->
<g id="edge14" class="edge">
<title>cl-&gt;rx</title>
<path fill="none" stroke="#000000" d="M939,-503.8365C939,-496.1354 939,-486.9779 939,-478.4194"/>
<polygon fill="#000000" stroke="#000000" points="942.5001,-478.415 939,-468.415 935.5001,-478.4151 942.5001,-478.415"/>
</g>
<!-- rn -->
<g id="node17" class="node">
<title>rn</title>
<polygon fill="none" stroke="#000000" points="1478,-613.6343 1424,-613.6343 1424,-577.6343 1478,-577.6343 1478,-613.6343"/>
<text text-anchor="middle" x="1451" y="-591.4343" font-family="Times,serif" font-size="14.00" fill="#000000">rn</text>
</g>
<!-- ml -->
<g id="node18" class="node">
<title>ml</title>
<polygon fill="none" stroke="#000000" points="1626,-540.0069 1572,-540.0069 1572,-504.0069 1626,-504.0069 1626,-540.0069"/>
<text text-anchor="middle" x="1599" y="-517.8069" font-family="Times,serif" font-size="14.00" fill="#000000">ml</text>
</g>
<!-- rn&#45;&gt;ml -->
<g id="edge15" class="edge">
<title>rn-&gt;ml</title>
<path fill="none" stroke="#000000" d="M1478.1455,-582.1299C1501.8544,-570.3352 1536.464,-553.1175 1562.5764,-540.127"/>
<polygon fill="#000000" stroke="#000000" points="1564.3821,-543.138 1571.7764,-535.5502 1561.2642,-536.8707 1564.3821,-543.138"/>
</g>
<!-- gk -->
<g id="node26" class="node">
<title>gk</title>
<polygon fill="none" stroke="#000000" points="1664,-468 1610,-468 1610,-432 1664,-432 1664,-468"/>
<text text-anchor="middle" x="1637" y="-445.8" font-family="Times,serif" font-size="14.00" fill="#000000">gk</text>
</g>
<!-- ml&#45;&gt;gk -->
<g id="edge77" class="edge">
<title>ml-&gt;gk</title>
<path fill="none" stroke="#000000" d="M1608.589,-503.8365C1612.8317,-495.7969 1617.9121,-486.17 1622.596,-477.2944"/>
<polygon fill="#000000" stroke="#000000" points="1625.71,-478.8926 1627.2819,-468.415 1619.5192,-475.6255 1625.71,-478.8926"/>
</g>
<!-- ks -->
<g id="node19" class="node">
<title>ks</title>
<polygon fill="none" stroke="#000000" points="1683,-324 1629,-324 1629,-288 1683,-288 1683,-324"/>
<text text-anchor="middle" x="1656" y="-301.8" font-family="Times,serif" font-size="14.00" fill="#000000">ks</text>
</g>
<!-- xk -->
<g id="node20" class="node">
<title>xk</title>
<polygon fill="none" stroke="#000000" points="1740,-252 1686,-252 1686,-216 1740,-216 1740,-252"/>
<text text-anchor="middle" x="1713" y="-229.8" font-family="Times,serif" font-size="14.00" fill="#000000">xk</text>
</g>
<!-- ks&#45;&gt;xk -->
<g id="edge16" class="edge">
<title>ks-&gt;xk</title>
<path fill="none" stroke="#000000" d="M1670.3835,-287.8314C1676.9486,-279.5386 1684.8507,-269.557 1692.0578,-260.4533"/>
<polygon fill="#000000" stroke="#000000" points="1694.9599,-262.4262 1698.4228,-252.4133 1689.4716,-258.0813 1694.9599,-262.4262"/>
</g>
<!-- ks&#45;&gt;kd -->
<g id="edge17" class="edge">
<title>ks-&gt;kd</title>
<path fill="none" stroke="#000000" d="M1628.8879,-323.896C1595.7412,-348.1717 1544,-394.8915 1544,-450 1544,-522.0069 1544,-522.0069 1544,-522.0069 1544,-566.0341 1558.3662,-615.3431 1568.948,-645.6911"/>
<polygon fill="#000000" stroke="#000000" points="1565.6953,-646.9894 1572.3653,-655.2211 1572.2845,-644.6265 1565.6953,-646.9894"/>
</g>
<!-- xk&#45;&gt;kd -->
<g id="edge37" class="edge">
<title>xk-&gt;kd</title>
<path fill="none" stroke="#000000" d="M1716.5224,-252.1045C1721.5018,-279.3176 1730,-332.4358 1730,-378 1730,-522.0069 1730,-522.0069 1730,-522.0069 1730,-590.7413 1651.6586,-639.8413 1608.2083,-661.7876"/>
<polygon fill="#000000" stroke="#000000" points="1606.4395,-658.7566 1598.9976,-666.2978 1609.5179,-665.0434 1606.4395,-658.7566"/>
</g>
<!-- nv -->
<g id="node35" class="node">
<title>nv</title>
<polygon fill="none" stroke="#000000" points="1759,-180 1705,-180 1705,-144 1759,-144 1759,-180"/>
<text text-anchor="middle" x="1732" y="-157.8" font-family="Times,serif" font-size="14.00" fill="#000000">nv</text>
</g>
<!-- xk&#45;&gt;nv -->
<g id="edge36" class="edge">
<title>xk-&gt;nv</title>
<path fill="none" stroke="#000000" d="M1717.7945,-215.8314C1719.8489,-208.0463 1722.296,-198.7729 1724.5756,-190.1347"/>
<polygon fill="#000000" stroke="#000000" points="1727.9735,-190.9753 1727.1409,-180.4133 1721.2052,-189.1892 1727.9735,-190.9753"/>
</g>
<!-- kd&#45;&gt;qm -->
<g id="edge104" class="edge">
<title>kd-&gt;qm</title>
<path fill="none" stroke="#000000" d="M1581.1641,-695.3942C1578.7298,-736.1062 1566.0968,-826.4414 1556.5984,-872.3607"/>
<polygon fill="#000000" stroke="#000000" points="1553.1555,-871.7219 1554.4421,-882.2383 1559.9944,-873.2149 1553.1555,-871.7219"/>
</g>
<!-- kd&#45;&gt;rn -->
<g id="edge108" class="edge">
<title>kd-&gt;rn</title>
<path fill="none" stroke="#000000" d="M1562.3336,-663.8134C1543.0363,-651.996 1511.6044,-632.7476 1487.051,-617.7114"/>
<polygon fill="#000000" stroke="#000000" points="1488.7073,-614.6216 1478.3514,-612.384 1485.0516,-620.5912 1488.7073,-614.6216"/>
</g>
<!-- kd&#45;&gt;ml -->
<g id="edge105" class="edge">
<title>kd-&gt;ml</title>
<path fill="none" stroke="#000000" d="M1582.5624,-654.0483C1585.8823,-627.3801 1591.6875,-580.7472 1595.4358,-550.6379"/>
<polygon fill="#000000" stroke="#000000" points="1598.953,-550.7159 1596.7152,-540.3601 1592.0066,-549.8511 1598.953,-550.7159"/>
</g>
<!-- qv -->
<g id="node27" class="node">
<title>qv</title>
<polygon fill="none" stroke="#000000" points="1683,-396 1629,-396 1629,-360 1683,-360 1683,-396"/>
<text text-anchor="middle" x="1656" y="-373.8" font-family="Times,serif" font-size="14.00" fill="#000000">qv</text>
</g>
<!-- kd&#45;&gt;qv -->
<g id="edge107" class="edge">
<title>kd-&gt;qv</title>
<path fill="none" stroke="#000000" d="M1595.4184,-660.3755C1606.7486,-649.1194 1621.7261,-632.486 1631,-615.2549 1663.2539,-555.3267 1663.5759,-535.401 1673,-468 1675.2156,-452.1541 1675.4305,-447.8143 1673,-432 1671.6626,-423.2979 1669.1796,-414.074 1666.5166,-405.759"/>
<polygon fill="#000000" stroke="#000000" points="1669.7846,-404.4982 1663.2439,-396.1634 1663.1594,-406.7579 1669.7846,-404.4982"/>
</g>
<!-- ts -->
<g id="node59" class="node">
<title>ts</title>
<ellipse fill="none" stroke="#000000" cx="1350" cy="-595.6343" rx="18" ry="18"/>
<polyline fill="none" stroke="#000000" points="1361.9052,-609.1343 1338.0948,-609.1343 "/>
<polyline fill="none" stroke="#000000" points="1361.9052,-582.1343 1338.0948,-582.1343 "/>
<text text-anchor="middle" x="1350" y="-591.4343" font-family="Times,serif" font-size="14.00" fill="#000000">ts</text>
</g>
<!-- kd&#45;&gt;ts -->
<g id="edge106" class="edge">
<title>kd-&gt;ts</title>
<path fill="none" stroke="#000000" d="M1560.3903,-667.8967C1519.1842,-653.7437 1423.5598,-620.8998 1376.7642,-604.827"/>
<polygon fill="#000000" stroke="#000000" points="1377.6239,-601.4216 1367.0292,-601.4833 1375.35,-608.042 1377.6239,-601.4216"/>
</g>
<!-- pc -->
<g id="node48" class="node">
<title>pc</title>
<polygon fill="none" stroke="#000000" points="234,-540.0069 180,-540.0069 180,-504.0069 234,-504.0069 234,-540.0069"/>
<text text-anchor="middle" x="207" y="-517.8069" font-family="Times,serif" font-size="14.00" fill="#000000">pc</text>
</g>
<!-- jp&#45;&gt;pc -->
<g id="edge99" class="edge">
<title>jp-&gt;pc</title>
<path fill="none" stroke="#000000" d="M135.4832,-577.4343C147.4725,-568.1423 162.2321,-556.7032 175.2231,-546.6348"/>
<polygon fill="#000000" stroke="#000000" points="177.6977,-549.145 183.4578,-540.2527 173.4096,-543.6122 177.6977,-549.145"/>
</g>
<!-- qd -->
<g id="node28" class="node">
<title>qd</title>
<polygon fill="none" stroke="#000000" points="139,-692.632 85,-692.632 85,-656.632 139,-656.632 139,-692.632"/>
<text text-anchor="middle" x="112" y="-670.432" font-family="Times,serif" font-size="14.00" fill="#000000">qd</text>
</g>
<!-- sk&#45;&gt;qd -->
<g id="edge72" class="edge">
<title>sk-&gt;qd</title>
<path fill="none" stroke="#000000" d="M126.5933,-735.2993C124.2672,-725.6292 121.3627,-713.5546 118.7587,-702.7293"/>
<polygon fill="#000000" stroke="#000000" points="122.1246,-701.7565 116.3828,-692.8524 115.3187,-703.3937 122.1246,-701.7565"/>
</g>
<!-- dt&#45;&gt;cl -->
<g id="edge93" class="edge">
<title>dt-&gt;cl</title>
<path fill="none" stroke="#000000" d="M878.8118,-809.566C889.5755,-758.1409 920.2547,-611.5659 933.1635,-549.8919"/>
<polygon fill="#000000" stroke="#000000" points="936.6653,-550.245 935.2883,-539.7401 929.8138,-548.8109 936.6653,-550.245"/>
</g>
<!-- rp -->
<g id="node33" class="node">
<title>rp</title>
<polygon fill="none" stroke="#000000" points="327,-324 273,-324 273,-288 327,-288 327,-324"/>
<text text-anchor="middle" x="300" y="-301.8" font-family="Times,serif" font-size="14.00" fill="#000000">rp</text>
</g>
<!-- gb&#45;&gt;rp -->
<g id="edge63" class="edge">
<title>gb-&gt;rp</title>
<path fill="none" stroke="#000000" d="M244.6733,-359.8314C253.5249,-351.219 264.2486,-340.7851 273.8895,-331.4048"/>
<polygon fill="#000000" stroke="#000000" points="276.6061,-333.645 281.3326,-324.1628 271.7246,-328.6279 276.6061,-333.645"/>
</g>
<!-- gk&#45;&gt;kd -->
<g id="edge24" class="edge">
<title>gk-&gt;kd</title>
<path fill="none" stroke="#000000" d="M1638.5155,-468.1508C1639.6004,-486.4876 1640.0922,-515.5277 1635,-540.0138 1626.9425,-578.7588 1608.1318,-620.527 1594.7573,-647.09"/>
<polygon fill="#000000" stroke="#000000" points="1591.5574,-645.6597 1590.1058,-656.1546 1597.7853,-648.8555 1591.5574,-645.6597"/>
</g>
<!-- gk&#45;&gt;qv -->
<g id="edge23" class="edge">
<title>gk-&gt;qv</title>
<path fill="none" stroke="#000000" d="M1641.7945,-431.8314C1643.8489,-424.0463 1646.296,-414.7729 1648.5756,-406.1347"/>
<polygon fill="#000000" stroke="#000000" points="1651.9735,-406.9753 1651.1409,-396.4133 1645.2052,-405.1892 1651.9735,-406.9753"/>
</g>
<!-- qv&#45;&gt;ks -->
<g id="edge38" class="edge">
<title>qv-&gt;ks</title>
<path fill="none" stroke="#000000" d="M1656,-359.8314C1656,-352.131 1656,-342.9743 1656,-334.4166"/>
<polygon fill="#000000" stroke="#000000" points="1659.5001,-334.4132 1656,-324.4133 1652.5001,-334.4133 1659.5001,-334.4132"/>
</g>
<!-- qd&#45;&gt;cm -->
<g id="edge27" class="edge">
<title>qd-&gt;cm</title>
<path fill="none" stroke="#000000" d="M105.3704,-692.8011C101.493,-704.4114 96.9819,-719.8863 95,-734.0091 83.1371,-818.5429 92.4882,-854.349 149,-918.3263 170.7168,-942.9121 205.1981,-958.7581 230.3646,-967.7391"/>
<polygon fill="#000000" stroke="#000000" points="229.2483,-971.0562 239.8426,-970.957 231.4988,-964.4278 229.2483,-971.0562"/>
</g>
<!-- qd&#45;&gt;jp -->
<g id="edge26" class="edge">
<title>qd-&gt;jp</title>
<path fill="none" stroke="#000000" d="M112,-656.3098C112,-646.7381 112,-634.8109 112,-624.0706"/>
<polygon fill="#000000" stroke="#000000" points="115.5001,-623.8572 112,-613.8572 108.5001,-623.8572 115.5001,-623.8572"/>
</g>
<!-- fs&#45;&gt;zz -->
<g id="edge102" class="edge">
<title>fs-&gt;zz</title>
<path fill="none" stroke="#000000" d="M1093.4776,-324.1045C1088.4982,-351.3176 1080,-404.4358 1080,-450 1080,-595.6343 1080,-595.6343 1080,-595.6343 1080,-647.9912 1114.3154,-701.3186 1136.8297,-730.6721"/>
<polygon fill="#000000" stroke="#000000" points="1134.1695,-732.9513 1143.1076,-738.64 1139.6679,-728.619 1134.1695,-732.9513"/>
</g>
<!-- lh -->
<g id="node39" class="node">
<title>lh</title>
<polygon fill="none" stroke="#000000" points="1105,-252 1051,-252 1051,-216 1105,-216 1105,-252"/>
<text text-anchor="middle" x="1078" y="-229.8" font-family="Times,serif" font-size="14.00" fill="#000000">lh</text>
</g>
<!-- fs&#45;&gt;lh -->
<g id="edge103" class="edge">
<title>fs-&gt;lh</title>
<path fill="none" stroke="#000000" d="M1092.2055,-287.8314C1090.1511,-280.0463 1087.704,-270.7729 1085.4244,-262.1347"/>
<polygon fill="#000000" stroke="#000000" points="1088.7948,-261.1892 1082.8591,-252.4133 1082.0265,-262.9753 1088.7948,-261.1892"/>
</g>
<!-- vq -->
<g id="node30" class="node">
<title>vq</title>
<polygon fill="none" stroke="#000000" points="1759,-108 1705,-108 1705,-72 1759,-72 1759,-108"/>
<text text-anchor="middle" x="1732" y="-85.8" font-family="Times,serif" font-size="14.00" fill="#000000">vq</text>
</g>
<!-- vq&#45;&gt;kd -->
<g id="edge30" class="edge">
<title>vq-&gt;kd</title>
<path fill="none" stroke="#000000" d="M1704.7391,-94.217C1644.63,-105.2236 1506,-140.7196 1506,-234 1506,-522.0069 1506,-522.0069 1506,-522.0069 1506,-571.6446 1538.0829,-622.0857 1559.9989,-650.7517"/>
<polygon fill="#000000" stroke="#000000" points="1557.4937,-653.2281 1566.4273,-658.924 1562.9956,-648.9003 1557.4937,-653.2281"/>
</g>
<!-- qj -->
<g id="node31" class="node">
<title>qj</title>
<polygon fill="none" stroke="#000000" points="1796,-36 1742,-36 1742,0 1796,0 1796,-36"/>
<text text-anchor="middle" x="1769" y="-13.8" font-family="Times,serif" font-size="14.00" fill="#000000">qj</text>
</g>
<!-- vq&#45;&gt;qj -->
<g id="edge29" class="edge">
<title>vq-&gt;qj</title>
<path fill="none" stroke="#000000" d="M1741.3367,-71.8314C1745.4243,-63.8771 1750.3104,-54.369 1754.8309,-45.5723"/>
<polygon fill="#000000" stroke="#000000" points="1758.0799,-46.9074 1759.5376,-36.4133 1751.8539,-43.7078 1758.0799,-46.9074"/>
</g>
<!-- qj&#45;&gt;kd -->
<g id="edge87" class="edge">
<title>qj-&gt;kd</title>
<path fill="none" stroke="#000000" d="M1776.8467,-36.254C1787.7078,-63.2219 1806,-115.5383 1806,-162 1806,-522.0069 1806,-522.0069 1806,-522.0069 1806,-615.3235 1672.035,-655.4198 1610.3877,-668.9308"/>
<polygon fill="#000000" stroke="#000000" points="1609.5233,-665.5359 1600.4546,-671.014 1610.9601,-672.3869 1609.5233,-665.5359"/>
</g>
<!-- cx&#45;&gt;zz -->
<g id="edge90" class="edge">
<title>cx-&gt;zz</title>
<path fill="none" stroke="#000000" d="M1171.9891,-468.0554C1169.1656,-518.4816 1161.1745,-661.2022 1157.6757,-723.6915"/>
<polygon fill="#000000" stroke="#000000" points="1154.18,-723.5177 1157.1154,-733.6978 1161.1691,-723.9091 1154.18,-723.5177"/>
</g>
<!-- cx&#45;&gt;jk -->
<g id="edge89" class="edge">
<title>cx-&gt;jk</title>
<path fill="none" stroke="#000000" d="M1163.411,-431.8314C1159.1683,-423.7925 1154.0879,-414.1666 1149.404,-405.2918"/>
<polygon fill="#000000" stroke="#000000" points="1152.4811,-403.6235 1144.7181,-396.4133 1146.2904,-406.8908 1152.4811,-403.6235"/>
</g>
<!-- rp&#45;&gt;cm -->
<g id="edge35" class="edge">
<title>rp-&gt;cm</title>
<path fill="none" stroke="#000000" d="M300,-324.1854C300,-351.5017 300,-404.75 300,-450 300,-827.7777 300,-827.7777 300,-827.7777 300,-869.8526 285.6664,-916.5932 274.6056,-946.3978"/>
<polygon fill="#000000" stroke="#000000" points="271.3034,-945.2343 271.0055,-955.825 277.8428,-947.7317 271.3034,-945.2343"/>
</g>
<!-- bk -->
<g id="node34" class="node">
<title>bk</title>
<polygon fill="none" stroke="#000000" points="437,-252 383,-252 383,-216 437,-216 437,-252"/>
<text text-anchor="middle" x="410" y="-229.8" font-family="Times,serif" font-size="14.00" fill="#000000">bk</text>
</g>
<!-- rp&#45;&gt;bk -->
<g id="edge34" class="edge">
<title>rp-&gt;bk</title>
<path fill="none" stroke="#000000" d="M327.191,-288.2022C341.3378,-278.9425 358.8157,-267.5025 374.063,-257.5224"/>
<polygon fill="#000000" stroke="#000000" points="376.2903,-260.2476 382.7406,-251.8425 372.4567,-254.3907 376.2903,-260.2476"/>
</g>
<!-- bk&#45;&gt;bd -->
<g id="edge75" class="edge">
<title>bk-&gt;bd</title>
<path fill="none" stroke="#000000" d="M418.0588,-252.2332C429.2134,-279.1752 448,-331.4595 448,-378 448,-977.1617 448,-977.1617 448,-977.1617 448,-1034.8426 391.8738,-1080.7803 353.097,-1105.635"/>
<polygon fill="#000000" stroke="#000000" points="350.788,-1102.9492 344.1433,-1111.2014 354.4838,-1108.894 350.788,-1102.9492"/>
</g>
<!-- bk&#45;&gt;cm -->
<g id="edge76" class="edge">
<title>bk-&gt;cm</title>
<path fill="none" stroke="#000000" d="M410,-252.1854C410,-279.5017 410,-332.75 410,-378 410,-827.7777 410,-827.7777 410,-827.7777 410,-868.8979 416.6915,-886.2199 391,-918.3263 366.9936,-948.327 324.3015,-963.6165 294.6364,-970.9811"/>
<polygon fill="#000000" stroke="#000000" points="293.6948,-967.6063 284.7387,-973.2666 295.2699,-974.4268 293.6948,-967.6063"/>
</g>
<!-- nv&#45;&gt;kd -->
<g id="edge81" class="edge">
<title>nv-&gt;kd</title>
<path fill="none" stroke="#000000" d="M1739.6347,-180.2743C1750.2021,-207.2675 1768,-259.6151 1768,-306 1768,-522.0069 1768,-522.0069 1768,-522.0069 1768,-602.577 1662.6369,-648.0508 1609.666,-665.8214"/>
<polygon fill="#000000" stroke="#000000" points="1608.5539,-662.5026 1600.1193,-668.9141 1610.7112,-669.1618 1608.5539,-662.5026"/>
</g>
<!-- nv&#45;&gt;vq -->
<g id="edge80" class="edge">
<title>nv-&gt;vq</title>
<path fill="none" stroke="#000000" d="M1732,-143.8314C1732,-136.131 1732,-126.9743 1732,-118.4166"/>
<polygon fill="#000000" stroke="#000000" points="1735.5001,-118.4132 1732,-108.4133 1728.5001,-118.4133 1735.5001,-118.4132"/>
</g>
<!-- xg -->
<g id="node37" class="node">
<title>xg</title>
<polygon fill="none" stroke="#000000" points="634,-771.6191 580,-771.6191 580,-735.6191 634,-735.6191 634,-771.6191"/>
<text text-anchor="middle" x="607" y="-749.4191" font-family="Times,serif" font-size="14.00" fill="#000000">xg</text>
</g>
<!-- mj&#45;&gt;xg -->
<g id="edge39" class="edge">
<title>mj-&gt;xg</title>
<path fill="none" stroke="#000000" d="M635.6067,-809.4463C631.1891,-800.8251 625.8312,-790.369 620.9521,-780.8472"/>
<polygon fill="#000000" stroke="#000000" points="623.9605,-779.0431 616.2852,-771.7396 617.7307,-782.2353 623.9605,-779.0431"/>
</g>
<!-- mj&#45;&gt;mh -->
<g id="edge40" class="edge">
<title>mj-&gt;mh</title>
<path fill="none" stroke="#000000" d="M650.4574,-809.6085C658.0265,-784.409 671.8362,-738.4331 681.2127,-707.2166"/>
<polygon fill="#000000" stroke="#000000" points="684.6824,-707.8314 684.2071,-697.2472 677.9783,-705.8176 684.6824,-707.8314"/>
</g>
<!-- xg&#45;&gt;mh -->
<g id="edge82" class="edge">
<title>xg-&gt;mh</title>
<path fill="none" stroke="#000000" d="M626.4824,-735.2993C638.3626,-724.1282 653.6554,-709.748 666.3701,-697.7921"/>
<polygon fill="#000000" stroke="#000000" points="669.0126,-700.1116 673.9001,-690.7114 664.2173,-695.012 669.0126,-700.1116"/>
</g>
<!-- vs -->
<g id="node42" class="node">
<title>vs</title>
<polygon fill="none" stroke="#000000" points="568,-613.6343 514,-613.6343 514,-577.6343 568,-577.6343 568,-613.6343"/>
<text text-anchor="middle" x="541" y="-591.4343" font-family="Times,serif" font-size="14.00" fill="#000000">vs</text>
</g>
<!-- xg&#45;&gt;vs -->
<g id="edge83" class="edge">
<title>xg-&gt;vs</title>
<path fill="none" stroke="#000000" d="M599.429,-735.4962C587.9527,-708.0254 566.0656,-655.634 552.5805,-623.3547"/>
<polygon fill="#000000" stroke="#000000" points="555.7704,-621.9105 548.686,-614.0325 549.3113,-624.6089 555.7704,-621.9105"/>
</g>
<!-- mh&#45;&gt;ct -->
<g id="edge43" class="edge">
<title>mh-&gt;ct</title>
<path fill="none" stroke="#000000" d="M697.087,-697.4282C703.582,-739.0073 710.7264,-827.0313 711.4011,-872.2375"/>
<polygon fill="#000000" stroke="#000000" points="707.901,-872.2503 711.4349,-882.2383 714.901,-872.2265 707.901,-872.2503"/>
</g>
<!-- qs -->
<g id="node41" class="node">
<title>qs</title>
<ellipse fill="none" stroke="#000000" cx="872" cy="-595.6343" rx="19.7419" ry="19.7419"/>
<polyline fill="none" stroke="#000000" points="884.977,-610.3498 859.023,-610.3498 "/>
<polyline fill="none" stroke="#000000" points="884.977,-580.9189 859.023,-580.9189 "/>
<text text-anchor="middle" x="872" y="-591.4343" font-family="Times,serif" font-size="14.00" fill="#000000">qs</text>
</g>
<!-- mh&#45;&gt;qs -->
<g id="edge44" class="edge">
<title>mh-&gt;qs</title>
<path fill="none" stroke="#000000" d="M713.0834,-666.8097C742.2105,-656.2455 794.8282,-636.3034 838,-615.2549 840.6418,-613.9669 843.3583,-612.5561 846.0495,-611.1003"/>
<polygon fill="#000000" stroke="#000000" points="847.9556,-614.0439 854.956,-606.0912 844.5242,-607.9427 847.9556,-614.0439"/>
</g>
<!-- mh&#45;&gt;vs -->
<g id="edge45" class="edge">
<title>mh-&gt;vs</title>
<path fill="none" stroke="#000000" d="M670.1431,-663.6477C646.0998,-650.9853 606.1607,-629.9513 577.0533,-614.6219"/>
<polygon fill="#000000" stroke="#000000" points="578.4963,-611.4261 568.0173,-609.8631 575.2344,-617.6197 578.4963,-611.4261"/>
</g>
<!-- vk -->
<g id="node43" class="node">
<title>vk</title>
<polygon fill="none" stroke="#000000" points="720,-324 666,-324 666,-288 720,-288 720,-324"/>
<text text-anchor="middle" x="693" y="-301.8" font-family="Times,serif" font-size="14.00" fill="#000000">vk</text>
</g>
<!-- mh&#45;&gt;vk -->
<g id="edge46" class="edge">
<title>mh-&gt;vk</title>
<path fill="none" stroke="#000000" d="M695.6966,-651.472C701.3231,-621.6619 710,-568.2013 710,-522.0069 710,-522.0069 710,-522.0069 710,-450 710,-409.5973 703.3181,-363.2552 698.3326,-334.3013"/>
<polygon fill="#000000" stroke="#000000" points="701.7165,-333.3387 696.5224,-324.1045 694.8243,-334.5623 701.7165,-333.3387"/>
</g>
<!-- pg -->
<g id="node44" class="node">
<title>pg</title>
<polygon fill="none" stroke="#000000" points="606,-540.0069 552,-540.0069 552,-504.0069 606,-504.0069 606,-540.0069"/>
<text text-anchor="middle" x="579" y="-517.8069" font-family="Times,serif" font-size="14.00" fill="#000000">pg</text>
</g>
<!-- mh&#45;&gt;pg -->
<g id="edge47" class="edge">
<title>mh-&gt;pg</title>
<path fill="none" stroke="#000000" d="M671.0623,-661.7767C655.492,-650.9157 634.1873,-634.1408 620,-615.2549 605.0756,-595.3878 594.1829,-569.2386 587.3921,-549.6882"/>
<polygon fill="#000000" stroke="#000000" points="590.6919,-548.519 584.2153,-540.1342 584.0494,-550.7278 590.6919,-548.519"/>
</g>
<!-- lh&#45;&gt;zz -->
<g id="edge41" class="edge">
<title>lh-&gt;zz</title>
<path fill="none" stroke="#000000" d="M1070.3653,-252.2743C1059.7979,-279.2675 1042,-331.6151 1042,-378 1042,-595.6343 1042,-595.6343 1042,-595.6343 1042,-645.5164 1057.6615,-658.4138 1088,-698.0091 1099.906,-713.5478 1116.9681,-727.4849 1131.0226,-737.5199"/>
<polygon fill="#000000" stroke="#000000" points="1129.0941,-740.4416 1139.3118,-743.2433 1133.0714,-734.6812 1129.0941,-740.4416"/>
</g>
<!-- pz -->
<g id="node40" class="node">
<title>pz</title>
<polygon fill="none" stroke="#000000" points="1105,-180 1051,-180 1051,-144 1105,-144 1105,-180"/>
<text text-anchor="middle" x="1078" y="-157.8" font-family="Times,serif" font-size="14.00" fill="#000000">pz</text>
</g>
<!-- lh&#45;&gt;pz -->
<g id="edge42" class="edge">
<title>lh-&gt;pz</title>
<path fill="none" stroke="#000000" d="M1078,-215.8314C1078,-208.131 1078,-198.9743 1078,-190.4166"/>
<polygon fill="#000000" stroke="#000000" points="1081.5001,-190.4132 1078,-180.4133 1074.5001,-190.4133 1081.5001,-190.4132"/>
</g>
<!-- pz&#45;&gt;zz -->
<g id="edge65" class="edge">
<title>pz-&gt;zz</title>
<path fill="none" stroke="#000000" d="M1061.577,-180.0242C1039.776,-205.8936 1004,-255.968 1004,-306 1004,-595.6343 1004,-595.6343 1004,-595.6343 1004,-645.5164 1015.8175,-661.6805 1050,-698.0091 1071.3369,-720.6856 1104.0071,-735.867 1127.436,-744.559"/>
<polygon fill="#000000" stroke="#000000" points="1126.5686,-747.9645 1137.1634,-747.9947 1128.8999,-741.3641 1126.5686,-747.9645"/>
</g>
<!-- mf -->
<g id="node54" class="node">
<title>mf</title>
<polygon fill="none" stroke="#000000" points="1331,-108 1277,-108 1277,-72 1331,-72 1331,-108"/>
<text text-anchor="middle" x="1304" y="-85.8" font-family="Times,serif" font-size="14.00" fill="#000000">mf</text>
</g>
<!-- pz&#45;&gt;mf -->
<g id="edge64" class="edge">
<title>pz-&gt;mf</title>
<path fill="none" stroke="#000000" d="M1105.2609,-153.3151C1145.754,-140.4147 1221.8813,-116.1617 1267.2557,-101.7062"/>
<polygon fill="#000000" stroke="#000000" points="1268.5285,-104.974 1276.9942,-98.6036 1266.4036,-98.3043 1268.5285,-104.974"/>
</g>
<!-- qs&#45;&gt;cl -->
<g id="edge88" class="edge">
<title>qs-&gt;cl</title>
<path fill="none" stroke="#000000" d="M885.237,-581.0879C895.1227,-570.2244 908.7793,-555.217 919.8545,-543.0463"/>
<polygon fill="#000000" stroke="#000000" points="922.5524,-545.2818 926.6941,-535.5301 917.3751,-540.5705 922.5524,-545.2818"/>
</g>
<!-- vs&#45;&gt;pg -->
<g id="edge96" class="edge">
<title>vs-&gt;pg</title>
<path fill="none" stroke="#000000" d="M550.3933,-577.4343C554.7779,-568.9387 560.0889,-558.6484 564.9386,-549.2518"/>
<polygon fill="#000000" stroke="#000000" points="568.1069,-550.7442 569.5831,-540.2527 561.8865,-547.5338 568.1069,-550.7442"/>
</g>
<!-- jg -->
<g id="node58" class="node">
<title>jg</title>
<polygon fill="none" stroke="#000000" points="758,-252 704,-252 704,-216 758,-216 758,-252"/>
<text text-anchor="middle" x="731" y="-229.8" font-family="Times,serif" font-size="14.00" fill="#000000">jg</text>
</g>
<!-- vk&#45;&gt;jg -->
<g id="edge86" class="edge">
<title>vk-&gt;jg</title>
<path fill="none" stroke="#000000" d="M702.589,-287.8314C706.8317,-279.7925 711.9121,-270.1666 716.596,-261.2918"/>
<polygon fill="#000000" stroke="#000000" points="719.7096,-262.8908 721.2819,-252.4133 713.5189,-259.6235 719.7096,-262.8908"/>
</g>
<!-- lz -->
<g id="node47" class="node">
<title>lz</title>
<polygon fill="none" stroke="#000000" points="644,-468 590,-468 590,-432 644,-432 644,-468"/>
<text text-anchor="middle" x="617" y="-445.8" font-family="Times,serif" font-size="14.00" fill="#000000">lz</text>
</g>
<!-- pg&#45;&gt;lz -->
<g id="edge50" class="edge">
<title>pg-&gt;lz</title>
<path fill="none" stroke="#000000" d="M588.589,-503.8365C592.8317,-495.7969 597.9121,-486.17 602.596,-477.2944"/>
<polygon fill="#000000" stroke="#000000" points="605.71,-478.8926 607.2819,-468.415 599.5192,-475.6255 605.71,-478.8926"/>
</g>
<!-- kb&#45;&gt;kd -->
<g id="edge49" class="edge">
<title>kb-&gt;kd</title>
<path fill="none" stroke="#000000" d="M1523.593,-809.6085C1534.588,-783.2986 1555.0476,-734.3407 1568.0703,-703.1786"/>
<polygon fill="#000000" stroke="#000000" points="1571.3891,-704.314 1572.0157,-693.7377 1564.9304,-701.6148 1571.3891,-704.314"/>
</g>
<!-- hv -->
<g id="node46" class="node">
<title>hv</title>
<polygon fill="none" stroke="#000000" points="1505,-771.6191 1451,-771.6191 1451,-735.6191 1505,-735.6191 1505,-771.6191"/>
<text text-anchor="middle" x="1478" y="-749.4191" font-family="Times,serif" font-size="14.00" fill="#000000">hv</text>
</g>
<!-- kb&#45;&gt;hv -->
<g id="edge48" class="edge">
<title>kb-&gt;hv</title>
<path fill="none" stroke="#000000" d="M1506.6067,-809.4463C1502.1891,-800.8251 1496.8312,-790.369 1491.9521,-780.8472"/>
<polygon fill="#000000" stroke="#000000" points="1494.9605,-779.0431 1487.2852,-771.7396 1488.7307,-782.2353 1494.9605,-779.0431"/>
</g>
<!-- hv&#45;&gt;rn -->
<g id="edge56" class="edge">
<title>hv-&gt;rn</title>
<path fill="none" stroke="#000000" d="M1474.9028,-735.4962C1470.2484,-708.2622 1461.4082,-656.5354 1455.8809,-624.1939"/>
<polygon fill="#000000" stroke="#000000" points="1459.279,-623.2999 1454.1443,-614.0325 1452.379,-624.4792 1459.279,-623.2999"/>
</g>
<!-- hv&#45;&gt;kd -->
<g id="edge55" class="edge">
<title>hv-&gt;kd</title>
<path fill="none" stroke="#000000" d="M1501.4009,-735.4979C1517.5284,-723.0089 1538.9252,-706.4396 1555.3217,-693.7425"/>
<polygon fill="#000000" stroke="#000000" points="1557.6222,-696.3878 1563.3858,-687.4978 1553.3363,-690.8532 1557.6222,-696.3878"/>
</g>
<!-- lz&#45;&gt;mh -->
<g id="edge95" class="edge">
<title>lz-&gt;mh</title>
<path fill="none" stroke="#000000" d="M619.8726,-468.0872C625.1356,-499.008 637.6877,-563.6863 658,-615.2549 662.127,-625.7325 667.7663,-636.6545 673.2156,-646.2319"/>
<polygon fill="#000000" stroke="#000000" points="670.2475,-648.0895 678.3264,-654.9438 676.2852,-644.5475 670.2475,-648.0895"/>
</g>
<!-- tk -->
<g id="node57" class="node">
<title>tk</title>
<polygon fill="none" stroke="#000000" points="682,-396 628,-396 628,-360 682,-360 682,-396"/>
<text text-anchor="middle" x="655" y="-373.8" font-family="Times,serif" font-size="14.00" fill="#000000">tk</text>
</g>
<!-- lz&#45;&gt;tk -->
<g id="edge94" class="edge">
<title>lz-&gt;tk</title>
<path fill="none" stroke="#000000" d="M626.589,-431.8314C630.8317,-423.7925 635.9121,-414.1666 640.596,-405.2918"/>
<polygon fill="#000000" stroke="#000000" points="643.7096,-406.8908 645.2819,-396.4133 637.5189,-403.6235 643.7096,-406.8908"/>
</g>
<!-- pc&#45;&gt;cm -->
<g id="edge53" class="edge">
<title>pc-&gt;cm</title>
<path fill="none" stroke="#000000" d="M210.3587,-540.2587C215.313,-568.8147 224,-625.8419 224,-674.632 224,-827.7777 224,-827.7777 224,-827.7777 224,-869.8526 238.3336,-916.5932 249.3944,-946.3978"/>
<polygon fill="#000000" stroke="#000000" points="246.1572,-947.7317 252.9945,-955.825 252.6966,-945.2343 246.1572,-947.7317"/>
</g>
<!-- xl -->
<g id="node49" class="node">
<title>xl</title>
<polygon fill="none" stroke="#000000" points="253,-468 199,-468 199,-432 253,-432 253,-468"/>
<text text-anchor="middle" x="226" y="-445.8" font-family="Times,serif" font-size="14.00" fill="#000000">xl</text>
</g>
<!-- pc&#45;&gt;xl -->
<g id="edge54" class="edge">
<title>pc-&gt;xl</title>
<path fill="none" stroke="#000000" d="M211.7945,-503.8365C213.8489,-496.0507 216.296,-486.7764 218.5756,-478.1374"/>
<polygon fill="#000000" stroke="#000000" points="221.9737,-478.9771 221.1409,-468.415 215.2054,-477.1911 221.9737,-478.9771"/>
</g>
<!-- xl&#45;&gt;cm -->
<g id="edge60" class="edge">
<title>xl-&gt;cm</title>
<path fill="none" stroke="#000000" d="M233.4592,-468.0371C244.0038,-495.211 262,-548.4933 262,-595.6343 262,-827.7777 262,-827.7777 262,-827.7777 262,-867.7967 262,-913.8461 262,-944.1165"/>
<polygon fill="#000000" stroke="#000000" points="258.5001,-944.1297 262,-954.1297 265.5001,-944.1298 258.5001,-944.1297"/>
</g>
<!-- xl&#45;&gt;gb -->
<g id="edge61" class="edge">
<title>xl-&gt;gb</title>
<path fill="none" stroke="#000000" d="M226,-431.8314C226,-424.131 226,-414.9743 226,-406.4166"/>
<polygon fill="#000000" stroke="#000000" points="229.5001,-406.4132 226,-396.4133 222.5001,-406.4133 229.5001,-406.4132"/>
</g>
<!-- fr -->
<g id="node50" class="node">
<title>fr</title>
<polygon fill="none" stroke="#000000" points="777,-180 723,-180 723,-144 777,-144 777,-180"/>
<text text-anchor="middle" x="750" y="-157.8" font-family="Times,serif" font-size="14.00" fill="#000000">fr</text>
</g>
<!-- fr&#45;&gt;mh -->
<g id="edge58" class="edge">
<title>fr-&gt;mh</title>
<path fill="none" stroke="#000000" d="M757.6347,-180.2743C768.2021,-207.2675 786,-259.6151 786,-306 786,-522.0069 786,-522.0069 786,-522.0069 786,-574.7854 744.5486,-624.4329 716.4075,-652.0569"/>
<polygon fill="#000000" stroke="#000000" points="713.6886,-649.8135 708.8688,-659.2485 718.5204,-654.8785 713.6886,-649.8135"/>
</g>
<!-- fl -->
<g id="node51" class="node">
<title>fl</title>
<polygon fill="none" stroke="#000000" points="777,-108 723,-108 723,-72 777,-72 777,-108"/>
<text text-anchor="middle" x="750" y="-85.8" font-family="Times,serif" font-size="14.00" fill="#000000">fl</text>
</g>
<!-- fr&#45;&gt;fl -->
<g id="edge57" class="edge">
<title>fr-&gt;fl</title>
<path fill="none" stroke="#000000" d="M750,-143.8314C750,-136.131 750,-126.9743 750,-118.4166"/>
<polygon fill="#000000" stroke="#000000" points="753.5001,-118.4132 750,-108.4133 746.5001,-118.4133 753.5001,-118.4132"/>
</g>
<!-- fl&#45;&gt;mh -->
<g id="edge69" class="edge">
<title>fl-&gt;mh</title>
<path fill="none" stroke="#000000" d="M722.7417,-92.1251C655.2902,-99.0164 486,-126.9732 486,-234 486,-522.0069 486,-522.0069 486,-522.0069 486,-564.302 476.7506,-583.7771 505,-615.2549 525.5126,-638.1117 610.1763,-658.3603 657.8979,-668.2413"/>
<polygon fill="#000000" stroke="#000000" points="657.2695,-671.685 667.7661,-670.2458 658.663,-664.8251 657.2695,-671.685"/>
</g>
<!-- tp -->
<g id="node53" class="node">
<title>tp</title>
<polygon fill="none" stroke="#000000" points="824,-36 770,-36 770,0 824,0 824,-36"/>
<text text-anchor="middle" x="797" y="-13.8" font-family="Times,serif" font-size="14.00" fill="#000000">tp</text>
</g>
<!-- fl&#45;&gt;tp -->
<g id="edge68" class="edge">
<title>fl-&gt;tp</title>
<path fill="none" stroke="#000000" d="M761.8601,-71.8314C767.1629,-63.7079 773.5237,-53.9637 779.3673,-45.0118"/>
<polygon fill="#000000" stroke="#000000" points="782.4448,-46.7003 784.9802,-36.4133 776.5831,-42.8739 782.4448,-46.7003"/>
</g>
<!-- mp -->
<g id="node52" class="node">
<title>mp</title>
<polygon fill="none" stroke="#000000" points="1377,-36 1323,-36 1323,0 1377,0 1377,-36"/>
<text text-anchor="middle" x="1350" y="-13.8" font-family="Times,serif" font-size="14.00" fill="#000000">mp</text>
</g>
<!-- mp&#45;&gt;zz -->
<g id="edge59" class="edge">
<title>mp-&gt;zz</title>
<path fill="none" stroke="#000000" d="M1359.7554,-36.0482C1373.2583,-62.7597 1396,-114.7598 1396,-162 1396,-595.6343 1396,-595.6343 1396,-595.6343 1396,-642.2684 1405.4791,-664.545 1373,-698.0091 1347.1527,-724.6404 1239.2378,-742.4712 1185.9861,-749.8219"/>
<polygon fill="#000000" stroke="#000000" points="1185.2473,-746.3896 1175.803,-751.1913 1186.1803,-753.3272 1185.2473,-746.3896"/>
</g>
<!-- tp&#45;&gt;mh -->
<g id="edge62" class="edge">
<title>tp-&gt;mh</title>
<path fill="none" stroke="#000000" d="M802.726,-36.4332C810.6516,-63.6242 824,-116.2158 824,-162 824,-522.0069 824,-522.0069 824,-522.0069 824,-584.4797 759.8804,-633.7792 720.6823,-658.0805"/>
<polygon fill="#000000" stroke="#000000" points="718.5447,-655.2819 711.7813,-663.4371 722.1541,-661.2797 718.5447,-655.2819"/>
</g>
<!-- mf&#45;&gt;zz -->
<g id="edge92" class="edge">
<title>mf-&gt;zz</title>
<path fill="none" stroke="#000000" d="M1304,-108.1854C1304,-135.5017 1304,-188.75 1304,-234 1304,-522.0069 1304,-522.0069 1304,-522.0069 1304,-606.3551 1290.6903,-636.475 1233,-698.0091 1218.1039,-713.8978 1198.0823,-728.1941 1182.1891,-738.3117"/>
<polygon fill="#000000" stroke="#000000" points="1180.0386,-735.5267 1173.3785,-743.7665 1183.7233,-741.4784 1180.0386,-735.5267"/>
</g>
<!-- mf&#45;&gt;mp -->
<g id="edge91" class="edge">
<title>mf-&gt;mp</title>
<path fill="none" stroke="#000000" d="M1315.6077,-71.8314C1320.7978,-63.7079 1327.0232,-53.9637 1332.7425,-45.0118"/>
<polygon fill="#000000" stroke="#000000" points="1335.8015,-46.7246 1338.236,-36.4133 1329.9026,-42.9559 1335.8015,-46.7246"/>
</g>
<!-- qn&#45;&gt;cm -->
<g id="edge66" class="edge">
<title>qn-&gt;cm</title>
<path fill="none" stroke="#000000" d="M175.3795,-845.9449C182.4253,-864.8316 194.8086,-894.8583 210,-918.3263 218.1463,-930.9109 228.8892,-943.5404 238.4947,-953.854"/>
<polygon fill="#000000" stroke="#000000" points="236.1195,-956.4345 245.5566,-961.2503 241.1824,-951.6006 236.1195,-956.4345"/>
</g>
<!-- qn&#45;&gt;sk -->
<g id="edge67" class="edge">
<title>qn-&gt;sk</title>
<path fill="none" stroke="#000000" d="M159.6067,-809.4463C155.1891,-800.8251 149.8312,-790.369 144.9521,-780.8472"/>
<polygon fill="#000000" stroke="#000000" points="147.9605,-779.0431 140.2852,-771.7396 141.7307,-782.2353 147.9605,-779.0431"/>
</g>
<!-- zq&#45;&gt;zz -->
<g id="edge71" class="edge">
<title>zq-&gt;zz</title>
<path fill="none" stroke="#000000" d="M1204.1798,-809.4463C1195.5666,-799.466 1184.8311,-787.0265 1175.6814,-776.4245"/>
<polygon fill="#000000" stroke="#000000" points="1178.2383,-774.0302 1169.055,-768.7463 1172.9389,-778.6037 1178.2383,-774.0302"/>
</g>
<!-- zq&#45;&gt;th -->
<g id="edge70" class="edge">
<title>zq-&gt;th</title>
<path fill="none" stroke="#000000" d="M1233.8809,-809.6085C1254.4635,-782.6672 1293.189,-731.9779 1316.881,-700.9665"/>
<polygon fill="#000000" stroke="#000000" points="1319.8475,-702.8488 1323.1372,-692.7776 1314.285,-698.5992 1319.8475,-702.8488"/>
</g>
<!-- tk&#45;&gt;mh -->
<g id="edge73" class="edge">
<title>tk-&gt;mh</title>
<path fill="none" stroke="#000000" d="M657.1986,-396.1161C663.0933,-444.687 679.3182,-578.3763 686.942,-641.1951"/>
<polygon fill="#000000" stroke="#000000" points="683.4958,-641.8504 688.1751,-651.3558 690.4448,-641.0069 683.4958,-641.8504"/>
</g>
<!-- tk&#45;&gt;vk -->
<g id="edge74" class="edge">
<title>tk-&gt;vk</title>
<path fill="none" stroke="#000000" d="M664.589,-359.8314C668.8317,-351.7925 673.9121,-342.1666 678.596,-333.2918"/>
<polygon fill="#000000" stroke="#000000" points="681.7096,-334.8908 683.2819,-324.4133 675.5189,-331.6235 681.7096,-334.8908"/>
</g>
<!-- jg&#45;&gt;mh -->
<g id="edge79" class="edge">
<title>jg-&gt;mh</title>
<path fill="none" stroke="#000000" d="M734.5224,-252.1045C739.5018,-279.3176 748,-332.4358 748,-378 748,-522.0069 748,-522.0069 748,-522.0069 748,-567.4375 725.5623,-615.9408 708.8422,-645.7776"/>
<polygon fill="#000000" stroke="#000000" points="705.6136,-644.3701 703.6501,-654.7815 711.6776,-647.867 705.6136,-644.3701"/>
</g>
<!-- jg&#45;&gt;fr -->
<g id="edge78" class="edge">
<title>jg-&gt;fr</title>
<path fill="none" stroke="#000000" d="M735.7945,-215.8314C737.8489,-208.0463 740.296,-198.7729 742.5756,-190.1347"/>
<polygon fill="#000000" stroke="#000000" points="745.9735,-190.9753 745.1409,-180.4133 739.2052,-189.1892 745.9735,-190.9753"/>
</g>
<!-- ts&#45;&gt;cl -->
<g id="edge109" class="edge">
<title>ts-&gt;cl</title>
<path fill="none" stroke="#000000" d="M1332.7934,-589.7292C1319.7909,-585.4414 1301.4352,-579.7581 1285,-576.0138 1168.3684,-549.4425 1026.6338,-531.8132 967.2772,-525.0764"/>
<polygon fill="#000000" stroke="#000000" points="967.5047,-521.5801 957.1774,-523.9455 966.7258,-528.5366 967.5047,-521.5801"/>
</g>
</g>
</svg>